<svg xmlns="http://www.w3.org/2000/svg" width="20" height="19.999" viewBox="0 0 20 19.999"><defs><style>.a{fill:#fff;}</style></defs><path class="a" d="M-3074.122,19.94a7.332,7.332,0,0,1-2.428-.465,4.9,4.9,0,0,1-1.771-1.153,4.89,4.89,0,0,1-1.153-1.771,7.342,7.342,0,0,1-.465-2.427c-.05-1.066-.061-1.407-.061-4.123s.011-3.057.061-4.123a7.316,7.316,0,0,1,.465-2.427,4.9,4.9,0,0,1,1.153-1.771A4.9,4.9,0,0,1-3076.55.525a7.332,7.332,0,0,1,2.427-.465c1.066-.048,1.407-.06,4.123-.06s3.056.012,4.123.061a7.311,7.311,0,0,1,2.427.464,4.9,4.9,0,0,1,1.771,1.153,4.91,4.91,0,0,1,1.153,1.771,7.353,7.353,0,0,1,.465,2.427c.049,1.066.06,1.407.06,4.123s-.012,3.057-.06,4.123a7.348,7.348,0,0,1-.465,2.427,5.115,5.115,0,0,1-2.925,2.924,7.331,7.331,0,0,1-2.427.465c-1.066.049-1.407.06-4.123.06S-3073.056,19.988-3074.122,19.94Zm.082-18.079a5.514,5.514,0,0,0-1.857.344,3.1,3.1,0,0,0-1.15.748,3.1,3.1,0,0,0-.748,1.15,5.529,5.529,0,0,0-.345,1.857c-.048,1.054-.058,1.37-.058,4.04s.01,2.987.058,4.041a5.508,5.508,0,0,0,.345,1.857,3.1,3.1,0,0,0,.748,1.15,3.1,3.1,0,0,0,1.15.748,5.535,5.535,0,0,0,1.856.344c1.055.048,1.371.058,4.041.058s2.987-.01,4.041-.058a5.541,5.541,0,0,0,1.857-.344,3.314,3.314,0,0,0,1.9-1.9,5.549,5.549,0,0,0,.344-1.857c.048-1.054.058-1.37.058-4.041s-.01-2.987-.058-4.04a5.511,5.511,0,0,0-.345-1.857,3.091,3.091,0,0,0-.748-1.15A3.1,3.1,0,0,0-3064.1,2.2a5.541,5.541,0,0,0-1.857-.344c-1.054-.049-1.371-.059-4.041-.059S-3072.987,1.812-3074.04,1.86ZM-3075.132,10A5.133,5.133,0,0,1-3070,4.868,5.133,5.133,0,0,1-3064.868,10,5.132,5.132,0,0,1-3070,15.132,5.132,5.132,0,0,1-3075.132,10Zm1.8,0A3.332,3.332,0,0,0-3070,13.331,3.331,3.331,0,0,0-3066.669,10,3.332,3.332,0,0,0-3070,6.668,3.332,3.332,0,0,0-3073.332,10Zm7.468-5.337a1.2,1.2,0,0,1,1.2-1.2,1.2,1.2,0,0,1,1.2,1.2,1.2,1.2,0,0,1-1.2,1.2A1.2,1.2,0,0,1-3065.864,4.663Z" transform="translate(3080)"/></svg>