<svg xmlns="http://www.w3.org/2000/svg" width="20" height="20" viewBox="0 0 20 20"><defs><style>.a{fill:#fff;}</style></defs><path class="a" d="M14.984,0H5A5.023,5.023,0,0,0,0,5.016V15a5.02,5.02,0,0,0,5,5h9.984A5.027,5.027,0,0,0,20,14.984V5.016A5.027,5.027,0,0,0,14.984,0Zm1,13.286a.743.743,0,0,1-.349.286,4.249,4.249,0,0,1-1.175.3.247.247,0,0,0-.127.1,1.277,1.277,0,0,0-.079.3l-.016.079c-.016.063-.032.143-.048.206a.172.172,0,0,1-.175.127.954.954,0,0,1-.254-.032,3.508,3.508,0,0,0-.683-.079,2.464,2.464,0,0,0-.492.048,2.559,2.559,0,0,0-.952.476A2.7,2.7,0,0,1,10,15.746H9.857A2.785,2.785,0,0,1,8.206,15.1a2.5,2.5,0,0,0-.937-.476,2.584,2.584,0,0,0-.492-.048,3.177,3.177,0,0,0-.667.079H6.1a1.389,1.389,0,0,1-.254.032.174.174,0,0,1-.19-.127.882.882,0,0,1-.111-.27l-.016-.048a.963.963,0,0,0-.1-.3.119.119,0,0,0-.111-.079,5.3,5.3,0,0,1-1.19-.3.72.72,0,0,1-.349-.27.173.173,0,0,1-.016-.079v-.032a.386.386,0,0,1,.143-.111,2.8,2.8,0,0,0,1.127-.444,3.262,3.262,0,0,0,.794-.7A4.06,4.06,0,0,0,6.476,10.9v-.016a.617.617,0,0,0,.063-.54c-.127-.286-.508-.413-.778-.492l-.048-.016a1.094,1.094,0,0,1-.127-.048,1.342,1.342,0,0,1-.413-.238.3.3,0,0,1-.127-.286.379.379,0,0,1,.19-.238.5.5,0,0,1,.444-.048,1.036,1.036,0,0,0,.889.111.175.175,0,0,0,.1-.159c0-.1-.016-.19-.016-.286V8.635A6.376,6.376,0,0,1,6.794,6.19a3.348,3.348,0,0,1,.73-1.048A2.97,2.97,0,0,1,8.4,4.571a3.387,3.387,0,0,1,1.365-.286H10a3.387,3.387,0,0,1,1.365.286,2.97,2.97,0,0,1,.873.571,3.107,3.107,0,0,1,.73,1.048,6.018,6.018,0,0,1,.143,2.429v.048c0,.063-.016.111-.016.175v.079a.175.175,0,0,0,.1.159.507.507,0,0,0,.222.048h.032a1.73,1.73,0,0,0,.571-.159.512.512,0,0,1,.19-.032.56.56,0,0,1,.222.048c.175.063.3.19.3.317a.314.314,0,0,1-.111.222,1.545,1.545,0,0,1-.444.27.294.294,0,0,1-.111.032l-.048.016c-.254.079-.651.206-.778.492a.655.655,0,0,0,.063.556c0,.016,0,.016.016.032a3.74,3.74,0,0,0,2.571,2.143.139.139,0,0,1,.111.143A.687.687,0,0,1,15.984,13.286Z"/></svg>