<svg xmlns="http://www.w3.org/2000/svg" width="12" height="12" viewBox="0 0 12 12"><defs><style>.a{fill:#d4002a;}</style></defs><path class="a" d="M6.516,8.931V6.469H9.492A1.408,1.408,0,0,0,10.9,5.063V3.069a1.57,1.57,0,1,0-.937,0V5.063a.469.469,0,0,1-.469.469H6.516V3.069a1.57,1.57,0,1,0-.937,0V5.531H2.508a.469.469,0,0,1-.469-.469V3.069a1.57,1.57,0,1,0-.937,0V5.063A1.4,1.4,0,0,0,1.461,6a1.4,1.4,0,0,0-.359.938V8.931a1.57,1.57,0,1,0,.938,0V6.938a.469.469,0,0,1,.469-.469h3.07V8.931a1.57,1.57,0,1,0,.938,0ZM12,9.27a1.3,1.3,0,0,0-1.3-1.3H9.141V12h.938V10.57H10.2L10.931,12h1.052l-.78-1.531A1.3,1.3,0,0,0,12,9.27Zm-1.922-.363H10.7a.363.363,0,0,1,0,.727h-.621Z"/></svg>