<svg xmlns="http://www.w3.org/2000/svg" width="24.5" height="20" viewBox="0 0 24.5 20"><defs><style>.a{fill:#fff;}</style></defs><path class="a" d="M24.5,50.368a10.434,10.434,0,0,1-2.894.8,5.014,5.014,0,0,0,2.21-2.789A10.009,10.009,0,0,1,20.631,49.6a5.018,5.018,0,0,0-8.688,3.451,5.22,5.22,0,0,0,.116,1.151A14.2,14.2,0,0,1,1.706,48.92a5.063,5.063,0,0,0,1.543,6.745A4.942,4.942,0,0,1,.98,55.043V55.1A5.064,5.064,0,0,0,5,60.057a4.991,4.991,0,0,1-1.317.166,4.421,4.421,0,0,1-.951-.086A5.074,5.074,0,0,0,7.43,63.652,10.062,10.062,0,0,1,1.2,65.8,9.363,9.363,0,0,1,0,65.735,14.092,14.092,0,0,0,7.705,68,14.233,14.233,0,0,0,22,53.64c0-.223-.008-.438-.018-.652A10.046,10.046,0,0,0,24.5,50.368Z" transform="translate(0 -48)"/></svg>