<svg xmlns="http://www.w3.org/2000/svg" width="12" height="11.999" viewBox="0 0 12 11.999">
  <path id="ac-icon" d="M8.151,5.068a1.858,1.858,0,0,1,1.027.02,3.469,3.469,0,0,0,.766.108,2.007,2.007,0,0,0,1.066-.312,2.107,2.107,0,0,0,.973-1.547,2.478,2.478,0,0,0-.778-2.06A3.094,3.094,0,0,0,9,.368a3.181,3.181,0,0,0-2.262.941A4.612,4.612,0,0,0,5.48,4.385a1.1,1.1,0,0,1-.422-.526,1.747,1.747,0,0,1,.02-1.027A2.232,2.232,0,0,0,4.873,1,2.12,2.12,0,0,0,3.06.011,2.554,2.554,0,0,0,1.266.805,3.162,3.162,0,0,0,1.3,5.271,4.682,4.682,0,0,0,4.372,6.536a1.1,1.1,0,0,1-.522.418,1.848,1.848,0,0,1-1.027-.02,3.47,3.47,0,0,0-.767-.108A2.006,2.006,0,0,0,.99,7.137,2.108,2.108,0,0,0,.016,8.685a2.478,2.478,0,0,0,.778,2.06,3.094,3.094,0,0,0,2.2.909,3.181,3.181,0,0,0,2.262-.941,4.612,4.612,0,0,0,1.26-3.077,1.105,1.105,0,0,1,.422.526,1.747,1.747,0,0,1-.02,1.027,2.232,2.232,0,0,0,.2,1.833,2.12,2.12,0,0,0,1.813.989,2.554,2.554,0,0,0,1.794-.794A3.162,3.162,0,0,0,10.7,6.75,4.681,4.681,0,0,0,7.629,5.485,1.1,1.1,0,0,1,8.151,5.068ZM6.512,6.523a.742.742,0,0,1-1.024,0,.724.724,0,1,1,1.024,0Z" transform="translate(0 -0.011)" fill="#d4002a"/>
</svg>
