<svg id="bag-icon" xmlns="http://www.w3.org/2000/svg" width="12" height="12.5" viewBox="0 0 12 12.5">
  <path id="Bag_2" data-name="Bag 2" d="M8.92,12.5H3.08A3.106,3.106,0,0,1,0,9.375V5.925A3.109,3.109,0,0,1,3.08,2.794h.129A2.807,2.807,0,0,1,6.006,0,2.745,2.745,0,0,1,7.964.818a2.835,2.835,0,0,1,.826,1.976H8.92A3.109,3.109,0,0,1,12,5.925v3.45A3.106,3.106,0,0,1,8.92,12.5ZM8.341,3.538a.466.466,0,0,0-.462.469v.725a.462.462,0,1,0,.924,0V4.006A.466.466,0,0,0,8.341,3.538Zm-4.737,0a.472.472,0,0,0-.462.469v.725a.462.462,0,1,0,.924,0V4.006A.466.466,0,0,0,3.6,3.538Zm2.4-2.6a1.892,1.892,0,0,0-1.324.55,1.922,1.922,0,0,0-.548,1.307H7.866A1.884,1.884,0,0,0,6.006.938Z" transform="translate(0 0)" fill="#d4002a"/>
</svg>
