<svg xmlns="http://www.w3.org/2000/svg" width="11" height="14" viewBox="0 0 11 14">
  <path id="car-seat-icon" d="M34.061.355A1.08,1.08,0,0,0,33.253,0h-.861a1.432,1.432,0,0,0-1.349,1.162l-.054.317a1.041,1.041,0,0,0,.207.85.987.987,0,0,0,.781.356h1.112A1.178,1.178,0,0,0,33.53,2.6l-.118,1.035a.931.931,0,0,0-.37-.075H31.774a1.279,1.279,0,0,0-1.19.988L29.462,9.966l-5.292-.39a.743.743,0,0,0-.673.273.8.8,0,0,0-.114.69L24,13.024A1.336,1.336,0,0,0,25.222,14h6.762a1.143,1.143,0,0,0,1.1-1.015l.868-8.391a1.036,1.036,0,0,0,0-.142l.3-2.6a1.252,1.252,0,0,0,.077-.355l.02-.29A1.137,1.137,0,0,0,34.061.355Z" transform="translate(-23.353)" fill="#d4002a"/>
</svg>
