<svg xmlns="http://www.w3.org/2000/svg" width="11" height="14" viewBox="0 0 11 14">
  <path id="fuel-icon" d="M32.46,1.726h-.069v-.3A1.431,1.431,0,0,0,30.956,0H28.739A1.431,1.431,0,0,0,27.3,1.424v.3H26.45a.528.528,0,0,0-.371.153L23.232,4.7a.519.519,0,0,0-.154.368v8.163A.77.77,0,0,0,23.85,14h8.611a.77.77,0,0,0,.772-.766V2.492A.77.77,0,0,0,32.46,1.726Zm-4.107-.3a.384.384,0,0,1,.385-.382h2.218a.384.384,0,0,1,.385.382v.3H28.353Zm-5.193,2.3a.527.527,0,0,1-.371-.153l-.4-.4a.518.518,0,0,1,0-.737L23.909.921a.528.528,0,0,1,.743,0l.4.4a.518.518,0,0,1,0,.737L23.532,3.569A.528.528,0,0,1,23.161,3.721Z" transform="translate(-22.232)" fill="#d4002a"/>
</svg>
